<svg width="678" height="731" viewBox="0 0 678 731" fill="none" xmlns="http://www.w3.org/2000/svg">
<path fill-rule="evenodd" clip-rule="evenodd" d="M423.147 730.507L160.627 730.491H154.924L154.887 728.991L150.58 728.017C149.934 727.814 149.288 727.59 148.658 727.356L149.84 727.642L148.642 727.35C144.47 725.819 140.559 723.757 137.075 721.121C136.007 720.569 135.163 719.929 134.522 719.048C132.236 717.559 130.97 716.397 129.762 715.179L129.71 715.116C127.106 712.475 124.772 709.569 122.757 706.429L124.069 708.069L123.986 707.95L97.2927 695.793C-34.2486 622.46 -15.6286 420.767 55.7047 258.767C90.6634 179.387 99.2207 24.4998 111.647 7.99318L112.168 7.29006L114.809 5.3786L115.257 5.15464C145.694 -9.78803 184.293 30.7333 206.73 48.7693C231.662 68.8213 323.995 68.5093 350.97 49.3526C367.809 37.3838 403.413 -7.15803 427.173 1.3113L428.449 1.87381C442.589 9.22274 449.162 56.8738 458.386 107.983C468.178 162.186 480.834 227.27 502.746 278.383C557.886 407.071 581.768 524.29 552.71 606.303L540.491 631.824L540.497 631.809L540.481 631.83C540.351 632.502 540.096 633.153 539.726 633.752C539.564 634.007 539.408 634.257 539.252 634.507L550.705 643.241C568.221 651.642 587.975 646.512 600.183 633.877C610.84 622.84 614.736 607.741 601.538 590.241C590.387 575.449 593.34 554.386 608.131 543.241C622.929 532.079 643.991 535.027 655.142 549.829C690.017 596.075 679.959 647.897 648.475 680.496C618.694 711.34 568.387 726.184 521.653 703.756C515.476 700.792 509.752 697.365 504.465 693.537L493.595 684.141L481.34 692.006L475.621 705.703C475.21 706.349 474.793 706.984 474.361 707.599C474.246 709.063 473.553 710.5 472.09 711.63C471.184 712.328 470.309 713.01 469.47 713.656C459.772 724.026 445.975 730.5 430.689 730.5L428.574 730.412L424.079 730.422H425.361C424.642 730.453 423.908 730.484 423.152 730.505L423.147 730.507ZM416.902 718.824V717.106L423.699 718.257C424.704 718.429 425.73 718.559 426.751 718.663C436.35 718.095 442.382 716.772 447.496 714.439L447.929 714.173L442.647 712.772C430.668 707.913 420.746 697.023 417.767 682.975L416.913 672.188L416.898 518.548L415.731 518.476C378.575 515.132 304.867 490.934 316.851 454.856C317.242 453.663 317.83 452.59 318.549 451.642C322.294 446.704 329.908 445.048 336.403 444.069C343.591 442.986 352.778 442.387 362.242 441.569C376.835 440.309 392.638 438.475 406.633 433.751L416.904 429.288V334.017L416.346 332.621L416.351 332.158C416.351 313.168 403.091 297.188 385.321 293.012C384.602 293.497 383.779 293.825 382.868 293.95C355.789 297.742 344.253 315.944 343.717 334.064C343.17 352.794 354.207 370.643 372.41 374.543C379.192 375.996 378.124 386.074 371.186 386.074H125.96V429.501V429.303C126.788 429.631 127.507 430.142 128.08 430.772L136.106 434.11C150.043 438.631 165.674 440.397 180.054 441.626C191.611 442.61 216.887 443.47 223.095 451.652C223.819 452.6 224.392 453.662 224.788 454.855C235.949 488.491 174.22 511.428 135.298 517.366L125.944 518.288L125.949 677.794C126.053 688.081 129.798 697.44 133.069 700.868C135.954 704.675 136.012 704.737 135.704 704.378C139.079 708.3 142.658 711.269 146.741 713.425C146.741 713.649 147.741 714.201 148.876 714.498C152.673 716.644 156.908 717.951 161.361 718.519L163.819 718.821L416.902 718.824ZM463.459 702.746C467.079 698.09 469.72 692.642 471.089 686.704L471.668 684.173L473.938 682.913C477.944 680.689 481.787 678.319 485.47 675.835C485.829 675.267 486.287 674.757 486.855 674.319C504.215 660.98 518.084 646.382 529.819 627.57C530.173 627.002 530.605 626.518 531.105 626.122C573.392 549.362 553.199 425.789 492.012 282.975C469.507 230.454 456.663 164.085 446.903 110.055C435.767 48.3672 430.048 21.8992 425.157 14.3578L423.116 12.2641L416.819 12.3266C400.111 16.8058 371.335 49.1866 357.72 58.8626C326.96 80.7066 228.851 81.5186 199.427 57.8574C175.015 38.2427 149.422 12.4667 128.875 13.4721L120.719 15.545L119.151 18.9981C110.099 46.7527 100.244 186.558 66.3803 263.465C-7.98905 432.371 -19.7557 630.505 116.375 692.331C115.052 687.732 114.333 682.889 114.286 677.873L114.271 518.659C111 518.514 107.781 518.389 104.531 518.185C98.4271 517.81 92.1563 517.18 85.4112 515.628C82.2809 514.909 80.3175 511.774 81.0415 508.633C81.755 505.498 84.8904 503.54 88.0363 504.264C93.9008 505.607 99.4581 506.191 105.239 506.54C109.796 506.821 114.437 506.956 119.348 507.227C119.541 507.201 119.728 507.185 119.921 507.18C156.921 506.034 213.443 483.754 214.307 462.716L213.728 458.675L211.301 457.378C209.739 456.82 207.327 456.195 203.713 455.638C197.15 454.622 188.801 454.081 179.051 453.247C160.041 451.622 136.395 448.956 117.379 438.883C117.161 438.774 116.952 438.649 116.749 438.508C107.562 435.253 98.4626 431.066 90.2133 425.514C87.5466 423.717 86.8278 420.092 88.6247 417.415C90.4217 414.748 94.0466 414.034 96.7237 415.831C102.146 419.472 108.062 422.503 114.27 425.071L114.276 424.868V387.128L107.083 386.399C82.6615 381.404 64.2709 359.784 64.2709 333.872C64.2709 307.992 82.6455 286.367 107.058 281.367L117.849 280.252L380.089 280.247L380.594 280.466L390.251 282.231C408.917 287.528 423.329 303.013 427.068 322.31L427.907 331.112L428.568 332.701V424.597L428.563 424.711C429.349 424.289 430.162 423.826 431.052 423.289C432.776 422.248 434.599 421.07 436.558 420.024C438.594 418.925 440.943 417.857 443.61 417.237C446.745 416.508 449.886 418.456 450.62 421.591C451.349 424.727 449.396 427.867 446.266 428.602C444.959 428.904 443.62 429.466 442.089 430.289C440.48 431.159 438.745 432.274 437.079 433.274C435.271 434.362 433.152 435.586 430.792 436.524C429.303 437.133 427.698 437.633 425.964 437.951C425.834 438.034 425.698 438.123 425.558 438.19C406.522 448.732 382.547 451.524 363.246 453.196C353.329 454.05 344.839 454.586 338.147 455.597C334.449 456.159 331.986 456.789 330.382 457.347L327.897 458.664L327.35 462.717C328.408 482.758 381.314 504.419 417.486 506.971C418.403 506.737 419.387 506.721 420.367 506.961C420.632 507.034 420.908 507.101 421.189 507.164C421.742 507.185 422.288 507.195 422.83 507.2C423.794 507.216 424.716 507.476 425.528 507.909C428.189 508.237 431.116 508.398 434.132 508.393C439.205 508.383 444.283 507.919 448.544 507.138C451.711 506.555 454.752 508.659 455.325 511.831C455.909 514.997 453.81 518.039 450.638 518.612C445.659 519.523 439.872 520.049 434.148 520.06C432.289 520.065 430.424 520.013 428.565 519.898L428.57 672.178L428.565 672.48C427.445 694.324 447.882 707.715 463.461 702.735L463.459 702.746ZM640.072 672.396C668.01 643.475 676.87 598.027 645.822 556.85C638.541 547.199 624.806 545.277 615.145 552.553C605.499 559.824 603.572 573.574 610.833 583.219C627.843 605.771 622.78 627.25 608.562 641.969C593.259 657.829 568.182 664.573 545.641 653.761C540.656 651.375 536.208 648.323 532.286 644.761C523.489 656.844 513.63 667.239 502.359 676.791C509.364 683.239 517.463 688.817 526.687 693.234C568.323 713.213 613.323 700.105 640.072 672.396ZM539.239 634.495L539.208 634.464L539.031 634.839C539.099 634.729 539.171 634.615 539.239 634.495ZM116.482 374.408H348.175L346.79 373.111C336.769 362.767 331.628 348.032 332.055 333.726C332.524 317.726 339.867 301.866 354.91 291.919L117.87 291.935C94.7242 291.94 75.9376 310.741 75.9376 333.877C75.9376 355.393 92.1669 373.143 113.026 375.555C113.994 374.836 115.187 374.409 116.484 374.409L116.482 374.408ZM396.535 264.143L351.014 246.039C348.764 245.143 347.67 242.601 348.561 240.362C349.456 238.112 351.998 237.013 354.238 237.909L399.764 256.018C402.009 256.908 403.108 259.455 402.212 261.695C401.322 263.94 398.775 265.039 396.535 264.143ZM151.642 259.518C150.746 257.278 151.84 254.726 154.09 253.841L194.59 237.747C196.829 236.851 199.381 237.95 200.267 240.195C201.162 242.435 200.063 244.987 197.819 245.872L157.319 261.965C155.079 262.861 152.527 261.762 151.642 259.518ZM399.575 241.736L353.539 229.507C351.206 228.887 349.815 226.491 350.435 224.158C351.06 221.825 353.456 220.434 355.789 221.054L401.825 233.283C404.158 233.903 405.549 236.299 404.924 238.632C404.304 240.965 401.908 242.356 399.575 241.736ZM144.748 238.002C144.123 235.669 145.514 233.273 147.847 232.653L193.878 220.408C196.211 219.788 198.607 221.179 199.227 223.512C199.852 225.846 198.456 228.241 196.123 228.861L150.096 241.106C147.763 241.726 145.368 240.335 144.748 238.002ZM247.087 227.611C245.561 224.773 246.629 221.236 249.467 219.715L270.285 208.554L270.279 194.585C261.024 193.683 252.367 190.309 246.05 185.402C243.508 183.423 243.04 179.762 245.019 177.22C246.993 174.673 250.654 174.21 253.201 176.184C258.191 180.058 265.821 182.897 274.128 183.137C282.352 183.376 290.904 181.058 298.04 175.064C300.503 172.996 304.18 173.314 306.259 175.777C308.326 178.246 308.009 181.923 305.545 184.001C298.331 190.059 290.097 193.272 281.946 194.376V208.36L301.925 217.839C304.837 219.225 306.081 222.704 304.696 225.61C303.31 228.522 299.837 229.766 296.925 228.381L276.274 218.574L254.982 229.99C252.139 231.516 248.603 230.45 247.087 227.611ZM116.915 161.914C116.915 133.059 140.342 109.622 169.207 109.622C188.68 109.622 205.691 120.304 214.691 136.122C214.754 136.07 214.821 136.023 214.894 135.966C229.258 125.413 249.91 118.403 271.701 117.815C292.508 117.252 314.722 122.534 333.783 136.58C342.705 120.502 359.857 109.616 379.533 109.616C408.387 109.616 431.819 133.048 431.819 161.903C431.819 190.767 408.387 214.195 379.533 214.195C350.669 214.195 327.241 190.768 327.241 161.903C327.241 157.007 327.918 152.252 329.178 147.752C312.053 134.164 291.542 128.95 272.017 129.471C252.324 130.007 234.048 136.372 221.804 145.372C220.996 145.961 220.095 146.32 219.168 146.45C220.684 151.336 221.501 156.529 221.501 161.914C221.501 190.778 198.059 214.206 169.204 214.206C140.34 214.206 116.912 190.78 116.912 161.914L116.915 161.914ZM153.327 189.013C153.327 179.684 160.9 172.111 170.228 172.111C179.562 172.111 187.135 179.684 187.135 189.013C187.135 193.278 185.552 197.179 182.942 200.158C198.609 194.507 209.838 179.513 209.838 161.913C209.838 139.506 191.614 121.288 169.208 121.288C146.792 121.288 128.582 139.506 128.582 161.913C128.582 180.585 141.218 196.334 158.389 201.08C155.259 198.007 153.327 193.742 153.327 189.013ZM420.154 161.903C420.154 139.497 401.94 121.283 379.534 121.283C357.118 121.283 338.908 139.497 338.908 161.903C338.908 178.315 348.664 192.471 362.684 198.882C360.825 196.049 359.752 192.658 359.752 189.017C359.752 179.069 367.835 170.991 377.783 170.991C387.736 170.991 395.819 179.069 395.819 189.017C395.819 193.491 394.183 197.59 391.48 200.741C408.068 195.627 420.152 180.168 420.152 161.903L420.154 161.903ZM193.007 102.523V84.4552C193.007 82.0437 194.965 80.0854 197.387 80.0854C199.799 80.0854 201.757 82.0439 201.757 84.4552V102.523C201.757 104.94 199.799 106.903 197.387 106.903C194.965 106.903 193.007 104.94 193.007 102.523ZM354.06 102.523V84.4552C354.06 82.0437 356.019 80.0854 358.435 80.0854C360.847 80.0854 362.81 82.0439 362.81 84.4552V102.523C362.81 104.94 360.847 106.903 358.435 106.903C356.019 106.903 354.06 104.94 354.06 102.523ZM176.7 99.6065V81.5439C176.7 79.1324 178.659 77.1741 181.075 77.1741C183.487 77.1741 185.45 79.1325 185.45 81.5439V99.6065C185.45 102.023 183.487 103.987 181.075 103.987C178.659 103.987 176.7 102.023 176.7 99.6065ZM370.38 99.6065V81.5439C370.38 79.1324 372.339 77.1741 374.755 77.1741C377.167 77.1741 379.13 79.1325 379.13 81.5439V99.6065C379.13 102.023 377.167 103.987 374.755 103.987C372.339 103.987 370.38 102.023 370.38 99.6065Z" fill="white"/>
</svg>
