<svg width="690" height="733" viewBox="0 0 690 733" fill="none" xmlns="http://www.w3.org/2000/svg">
<path fill-rule="evenodd" clip-rule="evenodd" d="M221.107 732C216.815 731.245 216.393 731.156 212.544 730.25C213.633 730.557 211.336 729.953 209.393 729.172C207.768 728.865 206.476 728.438 205.232 727.984L205.19 727.979C202.456 726.995 199.914 725.932 197.638 724.849L192.95 722.323L161.83 718.948C5.72366 694.817 -54.623 570.641 61.1637 249.281L61.4033 248.964L62.3199 234.292C62.872 228.849 63.5282 224.245 64.0074 221.505C65.45 213.26 73.2678 165.333 75.4762 153.303C76.8043 146.084 77.6428 131.991 79.5283 123.959C82.4032 111.776 93.3403 18.8225 107.19 6.55184L107.82 6.06747L108.872 5.36955C109.153 5.18206 109.44 5.02059 109.742 4.88518C142.534 -9.67216 184.34 29.9532 209.596 48.3278C237.456 68.5572 339.888 68.2292 369.93 48.9268C388.555 36.9372 427.679 -7.0892 452.956 1.0468C480.863 10.0104 485.087 75.8748 487.32 93.0468C490.159 114.911 499.169 185.244 501.476 233.66L501.924 245.9C502.867 246.983 503.409 248.405 503.346 249.936C503.31 250.702 503.278 251.452 503.232 252.223C511.529 273.635 518.997 294.171 526.31 315.739C526.909 317.369 527.43 318.921 527.847 320.426C534.133 338.994 539.591 356.634 545.196 376.629C545.837 378.665 546.368 380.582 546.79 382.493C551.29 398.587 555.035 413.821 558.805 431.712C559.342 433.78 559.738 435.686 560.019 437.608C563.029 451.925 565.331 465.436 567.368 481.28C567.727 483.129 567.946 484.816 568.035 486.493C569.712 499.551 570.696 511.821 571.107 525.665C571.274 527.035 571.305 528.259 571.258 529.665C571.55 539.483 571.383 548.759 570.347 559.624C570.352 564.749 569.92 569.379 568.743 575.312C568.441 581.203 567.592 586.453 565.811 593.255C565.456 597.109 564.67 600.458 562.508 606.968C562.16 609.822 561.436 612.234 560.67 614.593L557.779 621.364L560.665 614.624C558.993 619.786 557.139 624.744 555.113 629.479L550.415 639.146L554.831 643.547C557.357 645.562 560.097 647.281 563.035 648.687C580.056 656.849 599.264 651.885 611.16 639.568C618.879 631.562 622.941 621.422 619.077 609.677C617.79 605.755 615.629 601.667 612.425 597.411C600.946 582.182 603.988 560.505 619.222 549.026C634.452 537.547 656.118 540.589 667.602 555.818C702.733 602.411 692.597 654.678 660.878 687.547C642.133 706.968 615.31 720.099 586.332 721.692C580.535 722.01 574.655 721.87 568.738 721.224C556.9 719.942 544.905 716.635 533.14 710.984C526.9 707.989 521.129 704.526 515.801 700.661L504.843 691.172L494.874 697.682C490.207 700.39 485.384 702.849 480.248 705.166C480.337 705.125 480.545 705.031 480.764 704.937C480.446 705.078 480.155 705.213 480.123 705.229C480.071 705.255 480.014 705.281 479.962 705.302H479.952C477.9 706.239 475.816 707.125 480.123 705.229C480.228 705.187 480.321 705.14 480.248 705.166C472.644 708.401 471.988 708.656 469.936 709.448C468.03 710.203 464.587 711.432 459.04 713.083C457.462 713.744 455.78 714.25 454.014 714.588C440.769 718.604 426.733 721.317 412.211 723.099L375.941 725.672L376.196 725.661C372.706 727.198 368.561 728.724 364.04 729.953L363.988 729.969C363.279 730.161 362.566 730.349 361.935 730.25C355.732 732.031 348.764 732.969 347.52 732.619C341.613 732.557 341.269 732.536 339.493 732.369C339.077 732.354 337.238 732.104 335.483 731.609C334.353 731.515 333.702 731.359 333.087 731.062C329.681 730.224 327.113 729.171 324.697 727.791L320.118 724.312L283.41 721.005L257.536 722.703C255.682 724.531 253.708 726.057 251.598 727.322C251.265 727.531 250.916 727.734 250.176 727.875C247.989 729.328 245.593 730.286 243.046 730.661C238.432 732.354 233.416 732.822 228.415 732.651C224.639 732.536 220.879 732.052 221.103 732L221.107 732ZM366.107 717.125C366.393 716.802 366.711 716.506 367.075 716.235C386.799 701.797 398.559 685.932 410.513 665.084C412.117 662.292 415.679 661.329 418.482 662.933C421.273 664.532 422.237 668.094 420.633 670.897C411.325 687.137 401.826 700.959 388.575 713.511C420.534 711.631 450.013 705.975 475.133 694.683C484.716 690.381 493.669 685.256 501.887 679.205C504.236 677.47 507.502 677.741 509.533 679.835C517.497 688.048 527.017 695.095 538.195 700.46C569.673 715.58 603.059 711.919 629.164 697.356C637.867 692.502 645.752 686.439 652.497 679.455C680.669 650.257 689.607 604.367 658.299 562.84C654.497 557.798 649.008 554.783 643.206 553.965C640.305 553.564 637.326 553.699 634.44 554.423C631.56 555.147 628.774 556.439 626.258 558.335C616.17 565.944 614.154 580.308 621.743 590.387C638.388 612.449 633.42 633.308 619.56 647.663C604.571 663.204 580.039 669.783 557.998 659.215C550.487 655.606 544.06 650.423 538.847 643.98C537.357 642.142 537.128 639.584 538.264 637.506C542.404 629.965 546.014 621.704 549.029 612.673C570.165 549.47 562.384 448.62 505.155 290.526L500.28 277.547C484.905 366.578 417.274 490.4 359.693 555.387L359.787 555.731L293.448 619.674L231.109 559.518C230.969 559.424 230.838 559.325 230.713 559.21C174.276 510.841 79.3801 366.05 65.0468 274.17L56.3593 299.864L51.4738 314.301C50.1145 318.608 48.7916 322.879 47.8645 326.686C45.3229 334.233 42.3853 344.29 40.0208 353.676C37.9635 359.999 35.4738 369.269 33.5572 377.9C31.3697 385.514 29.0884 395.056 27.3645 403.936C25.9114 409.045 24.1978 417.18 23.0312 424.685C21.2968 432.227 19.7082 441.201 18.6509 449.56C17.6665 453.674 16.6301 460.825 16.1405 467.357C14.9582 474.591 14.0884 482.92 13.729 490.664C13.0832 494.086 12.6717 500.403 12.7863 506.112C12.1978 512.83 12.0572 520.409 12.4061 527.44C12.052 530.45 12.2134 536.08 12.8957 541.128C12.8905 547.159 13.4738 553.909 14.4998 560.128C14.4373 562.982 15.1613 568.039 16.3957 572.529C16.9322 577.753 18.1769 583.617 19.8436 589.018C20.1405 591.831 21.4373 596.398 23.2342 600.419C24.2238 604.805 26.0572 609.789 28.2812 614.326C29.052 617.17 30.9582 621.295 33.3541 624.888C34.6666 628.456 37.0104 632.581 39.6926 636.305C41.0676 639.154 43.6197 642.847 46.6511 646.019C52.3073 653.899 56.9114 658.883 61.719 663.316C65.1721 666.524 67.995 668.91 71.0732 671.019C73.9742 673.592 77.9377 676.399 82.3701 678.727C84.1357 680.415 87.3909 682.368 90.8857 684.071C94.6409 686.357 99.3493 688.696 104.511 690.555C106.412 691.852 109.777 693.253 113.324 694.451C118.001 696.373 123.475 698.212 129.402 699.602C131.465 700.582 134.814 701.498 138.283 702.279C144.1 703.816 150.548 705.186 157.433 706.118C159.548 706.779 162.543 707.269 165.615 707.681C171.605 708.602 177.772 709.347 184.089 709.936C172.683 698.342 164.099 685.608 155.667 670.894C154.063 668.092 155.027 664.53 157.824 662.931C160.621 661.327 164.183 662.29 165.787 665.082C177.74 685.931 189.501 701.795 209.225 716.233C209.74 716.613 210.183 717.061 210.532 717.561C215.037 719.071 219.917 720.207 224.756 720.696C233.428 721.582 241.953 720.41 247.912 715.649C251.339 703.608 249.662 693.425 246.089 682.816C242.266 671.446 236.266 659.685 232.797 645.748C232.021 642.623 233.917 639.456 237.047 638.68C240.172 637.899 243.339 639.8 244.115 642.925C247.36 655.92 253.089 667.034 257.151 679.092C260.433 688.878 262.558 699.18 260.854 710.878C268.125 710.493 275.505 709.967 283.005 709.337C283.375 709.311 283.76 709.316 284.13 709.352C294.661 710.529 305.193 711.54 315.661 712.326C313.562 700.019 315.718 689.274 319.145 679.092C323.182 667.123 328.947 655.904 332.182 642.925C332.958 639.8 336.124 637.899 339.255 638.68C342.38 639.456 344.275 642.623 343.499 645.748C340.031 659.68 334.01 671.529 330.208 682.816C326.551 693.649 324.869 704.029 328.598 716.409C337.869 723.097 353.213 721.659 366.104 717.123L366.107 717.125ZM61.72 663.319C61.6419 663.282 61.5325 663.183 61.4231 663.074C62.1887 663.787 62.1939 663.787 62.1106 663.709C61.9752 663.595 61.845 663.475 61.72 663.319ZM293.453 603.469L346.756 552.084L303.329 387.111L308.178 385.23C320.079 380.595 328.189 376.027 329.042 364.558L328.995 361.793L293.61 337.902L258.61 362.699L258.917 365.179C261.266 377.304 268.626 383.091 279.516 386.924L284.677 388.747L238.813 550.747L293.453 603.469ZM229.183 541.939L270.537 395.872L269.886 395.606C259.115 390.575 250.917 382.559 247.804 369.018L144.392 430.586L144.313 430.623C172.157 476.039 203.636 517.253 229.168 542.003L229.183 541.939ZM432.716 425.313L340.247 368.949C337.882 382.351 328.111 389.2 317.867 393.829L317.231 394.095L356.065 541.642L356.091 541.735C381.951 511.277 409.351 469.59 432.716 425.319L432.716 425.313ZM138.289 420.636L138.331 420.605L250.634 353.75C251.009 353.532 251.394 353.354 251.8 353.219L251.467 353.464L278.998 333.953C218.91 331.193 156.967 310.995 93.571 273.271L75.2737 261.666C78.831 305.088 105.414 365.25 138.29 420.64L138.289 420.636ZM490.249 265.823L474.099 277.255C420.901 312.146 365.593 331.053 308.512 333.906L339.695 354.947L438.023 414.879L438.101 414.926C464.355 363.317 484.627 309.15 490.251 265.819L490.249 265.823ZM467.895 267.37L490.343 251.469C489.983 205.479 478.994 119.578 475.749 94.5485C472.645 70.7205 468.083 18.1578 449.385 12.1472C432.579 6.7409 400 43.4498 376.235 58.7352C342.595 80.3552 234.888 81.1152 202.741 57.7612C176.257 38.5012 147.481 12.2252 124.132 13.3132L114.83 15.4747L111.408 21.7664C103.064 44.1731 94.132 112.865 90.8867 126.626C88.6315 136.231 89.147 143.496 86.944 155.413C84.7357 167.491 77.0117 214.825 75.4961 223.522C74.767 227.653 73.5743 236.861 73.0691 246.522C214.336 341.012 346.682 346.965 467.896 267.366L467.895 267.37ZM165.077 231.854C164.187 229.614 165.28 227.073 167.53 226.177L215.176 207.229C217.415 206.338 219.957 207.432 220.853 209.682C221.749 211.921 220.65 214.463 218.405 215.359L170.754 234.307C168.515 235.198 165.973 234.104 165.077 231.854ZM403.477 232.573L355.832 213.614C353.582 212.723 352.488 210.176 353.379 207.937C354.275 205.692 356.822 204.593 359.061 205.489L406.707 224.442C408.951 225.338 410.05 227.88 409.154 230.119C408.259 232.369 405.717 233.463 403.477 232.573ZM247.584 215.797C240.824 212.666 235.683 206.64 234.12 197.953C233.552 194.786 235.656 191.755 238.834 191.177C241.995 190.609 245.031 192.718 245.604 195.89C246.479 200.76 249.115 203.645 252.474 205.203C256.037 206.843 260.797 207.119 265.62 205.739C274.818 203.083 282.923 194.885 281.308 181.603C272.339 180.655 263.969 177.348 257.839 172.572C255.297 170.588 254.839 166.926 256.813 164.385C258.797 161.838 262.458 161.379 265.005 163.353C269.896 167.166 277.401 169.968 285.563 170.202C293.641 170.431 302.057 168.155 309.063 162.26C311.521 160.181 315.209 160.499 317.276 162.968C319.354 165.426 319.037 169.114 316.573 171.181C309.88 176.812 302.297 179.952 294.74 181.223C292.917 194.671 301.141 203.067 310.38 205.728C315.203 207.114 319.963 206.833 323.526 205.192C326.885 203.635 329.52 200.749 330.39 195.885C330.968 192.708 334 190.603 337.166 191.171C340.338 191.744 342.447 194.78 341.88 197.942C340.317 206.629 335.177 212.66 328.416 215.786C321.858 218.812 314.15 218.958 307.15 216.937C299.676 214.791 292.593 210.005 288.01 202.994C283.438 210.005 276.349 214.781 268.844 216.948C261.844 218.968 254.141 218.817 247.584 215.797ZM164.912 209.541C164.292 207.208 165.683 204.812 168.016 204.187L213.36 192.135C215.693 191.51 218.089 192.906 218.709 195.239C219.334 197.573 217.943 199.968 215.61 200.588L170.261 212.646C167.927 213.265 165.532 211.875 164.912 209.541ZM403.965 210.911L358.611 198.849C356.277 198.224 354.887 195.828 355.512 193.494C356.132 191.161 358.527 189.77 360.861 190.39L406.215 202.453C408.549 203.078 409.939 205.474 409.319 207.807C408.694 210.14 406.299 211.531 403.965 210.911ZM144.059 149.37C144.059 126.588 162.548 108.078 185.335 108.078C208.105 108.078 226.605 126.588 226.605 149.37C226.605 172.151 208.105 190.656 185.335 190.656C162.548 190.656 144.059 172.151 144.059 149.37ZM350.725 149.37C350.725 126.588 369.209 108.078 391.991 108.078C414.772 108.078 433.267 126.588 433.267 149.37C433.267 172.151 414.772 190.656 391.991 190.656C369.209 190.656 350.725 172.151 350.725 149.37ZM214.939 149.37C214.939 133.02 201.657 119.744 185.335 119.744C168.991 119.744 155.725 133.02 155.725 149.37C155.725 165.719 168.991 178.99 185.335 178.99C201.657 178.99 214.939 165.719 214.939 149.37ZM421.605 149.37C421.605 133.02 408.329 119.744 391.996 119.744C375.663 119.744 362.397 133.02 362.397 149.37C362.397 165.719 375.663 178.99 391.996 178.99C408.329 178.99 421.605 165.719 421.605 149.37ZM169.419 144.776C169.419 135.984 176.549 128.849 185.336 128.849C194.128 128.849 201.257 135.985 201.257 144.776C201.257 153.557 194.127 160.703 185.336 160.703C176.55 160.703 169.419 153.557 169.419 144.776ZM374.939 144.776C374.939 135.984 382.079 128.849 390.86 128.849C399.652 128.849 406.792 135.985 406.792 144.776C406.792 153.557 399.651 160.703 390.86 160.703C382.079 160.703 374.939 153.557 374.939 144.776ZM203.272 105.036V87.2334C203.272 84.8219 205.23 82.8636 207.652 82.8636C210.064 82.8636 212.022 84.822 212.022 87.2334V105.036C212.022 107.458 210.064 109.416 207.652 109.416C205.23 109.416 203.272 107.458 203.272 105.036ZM370.845 105.031V87.2282C370.845 84.8167 372.809 82.8532 375.226 82.8532C377.637 82.8532 379.595 84.8168 379.595 87.2282V105.031C379.595 107.448 377.637 109.411 375.226 109.411C372.809 109.411 370.845 107.448 370.845 105.031ZM187.192 102.166V84.3636C187.192 81.9522 189.156 79.9939 191.572 79.9939C193.984 79.9939 195.942 81.9523 195.942 84.3636V102.166C195.942 104.588 193.984 106.547 191.572 106.547C189.156 106.547 187.192 104.588 187.192 102.166ZM386.925 102.161V84.3584C386.925 81.947 388.884 79.9835 391.3 79.9835C393.712 79.9835 395.675 81.9471 395.675 84.3584V102.161C395.675 104.578 393.712 106.541 391.3 106.541C388.884 106.541 386.925 104.578 386.925 102.161Z" fill="white"/>
</svg>
